<svg xmlns="http://www.w3.org/2000/svg" viewBox="0 -0.5 15 15" shape-rendering="crispEdges" width="500" height="500"><path stroke="#000000" d="M2 1h1M12 1h1M1 2h1M3 2h1M11 2h1M13 2h1M1 3h1M4 3h7M13 3h1M1 4h1M13 4h1M1 5h1M13 5h1M2 6h1M12 6h1M1 7h1M13 7h1M1 8h1M13 8h1M1 9h1M13 9h1M1 10h1M13 10h1M2 11h1M12 11h1M3 12h1M11 12h1M4 13h7"></path><path stroke="#FFFFFF" d="M6 4h1M8 4h1M4 5h1M6 5h1M8 5h1M10 5h1M3 6h2M6 6h1M8 6h1M10 6h2M2 7h11M4 8h2M9 8h2M2 9h3M10 9h3M5 10h1M9 10h1M3 11h9M4 12h7"></path><path stroke="#ffffff" d="M2 2h1M2 3h2M2 4h1M2 5h1"></path>//right<path stroke="#ffffff" d="M12 2h1M11 3h2M12 4h1M12 5h1"></path>//88<path stroke="#ffffff" d="M3 4h1M3 5h1"></path>// right ear shadow<path stroke="#ffffff" d="M11 4h1M11 5h1"></path><path stroke="#ffffff" d="M4 4h1"></path><path stroke="#ffffff" d="M10 4h1"></path><path stroke="#ffffff" d="M5 4h1M5 5h1M5 6h1"></path><path stroke="#ffffff" d="M7 4h1M7 5h1M7 6h1"></path><path stroke="#ffffff" d="M9 4h1M9 5h1M9 6h1"></path><path stroke="#ffffff" d="M2 8h2"></path><path stroke="#ffffff" d="M2 10h2"></path><path stroke="#ffffff" d="M11 8h2"></path><path stroke="#ffffff" d="M11 10h2"></path><path stroke="#ffffff" d="M4 10h1"></path><path stroke="#ffffff" d="M10 10h1"></path><path stroke="#000000" d="M5 9h1"></path><path stroke="#000000" d="M9 9h1"></path><path stroke="#000000" d="M7 10h1"></path><path stroke="#ffffff" d="M6 8h3M6 9h3M6 10h1M8 10h1"></path></svg>